<?xml version="1.0"?><svg fill="#FFFFFF" xmlns="http://www.w3.org/2000/svg"  viewBox="0 0 50 50" width="500px" height="500px">    <path d="M 26 3 C 22.14 3 19 6.14 19 10 C 19 13.519553 21.613417 16.432051 25 16.919922 L 25 24.082031 C 22.282806 24.473703 20.065097 26.422634 19.294922 29 L 32.705078 29 C 31.934903 26.422634 29.717194 24.473703 27 24.082031 L 27 16.919922 C 30.386583 16.432051 33 13.519553 33 10 C 33 6.14 29.86 3 26 3 z M 10 26 C 8.897 26 8 26.897 8 28 L 8 29 L 15 29 L 15 28 C 15 26.897 14.103 26 13 26 L 10 26 z M 6 31 C 3.794 31 2 32.794 2 35 L 2 43 C 2 45.206 3.794 47 6 47 L 44 47 C 46.206 47 48 45.206 48 43 L 48 35 C 48 32.794 46.206 31 44 31 L 6 31 z"/></svg>